<?xml version="1.0" standalone="no"?>
<!DOCTYPE svg PUBLIC "-//W3C//DTD SVG 20010904//EN"
 "http://www.w3.org/TR/2001/REC-SVG-20010904/DTD/svg10.dtd">
<svg version="1.0" xmlns="http://www.w3.org/2000/svg"
 width="210.000000pt" height="41.501976pt" viewBox="0 0 210.000000 41.501976"
 preserveAspectRatio="xMidYMid meet">
<metadata>
Created by potrace 1.16, written by Peter Selinger 2001-2019
</metadata>
<g transform="translate(0.000000,41.501976) scale(0.020751,-0.020751)"
fill="#000000" stroke="none">
<path d="M4965 1477 c-11 -30 -25 -105 -25 -134 0 -43 16 -42 37 2 22 46 53
55 186 55 l109 0 -4 -367 c-3 -260 -8 -374 -16 -390 -8 -15 -23 -23 -47 -25
-20 -2 -36 -7 -38 -13 -1 -6 69 -11 191 -13 153 -2 193 0 190 10 -3 7 -25 14
-50 16 -27 2 -52 10 -60 19 -10 13 -14 97 -16 390 l-3 373 98 0 c118 0 163
-17 178 -67 5 -18 15 -33 22 -33 10 0 13 23 13 88 l0 87 -332 0 c-183 0 -355
3 -381 7 -34 6 -49 4 -52 -5z"/>
<path d="M340 1465 c0 -10 10 -15 34 -15 69 0 67 11 64 -417 -3 -367 -4 -385
-22 -399 -11 -8 -33 -14 -49 -14 -18 0 -27 -4 -24 -12 5 -16 377 -19 377 -3 1
6 -20 13 -45 17 -80 11 -75 -15 -75 414 0 421 -1 414 61 414 19 0 29 5 29 15
0 13 -26 15 -175 15 -149 0 -175 -2 -175 -15z"/>
<path d="M885 1318 c-2 -13 -6 -167 -7 -344 -3 -349 -4 -354 -59 -354 -19 0
-29 -5 -29 -15 0 -13 22 -15 135 -15 111 0 135 3 135 14 0 10 -13 16 -37 18
-29 2 -41 9 -49 28 -7 15 -14 117 -18 248 l-7 224 83 -89 c194 -207 447 -455
460 -451 10 4 14 71 20 334 4 181 10 339 13 351 4 16 15 24 40 29 72 13 30 24
-95 24 -127 0 -169 -11 -91 -24 24 -3 42 -13 46 -23 4 -10 9 -123 12 -250 l6
-233 -189 193 c-104 105 -224 229 -268 275 -43 45 -82 82 -87 82 -5 0 -11 -10
-14 -22z"/>
<path d="M3340 1318 c-5 -13 -66 -165 -135 -338 -73 -182 -136 -325 -149 -338
-19 -20 -33 -24 -85 -23 -78 0 -97 6 -105 34 -8 29 -8 601 0 621 3 8 21 18 40
22 74 14 27 24 -111 24 -144 0 -178 -8 -108 -26 33 -8 38 -14 46 -49 5 -22 7
-164 5 -316 -4 -301 -5 -309 -60 -309 -19 0 -28 -4 -26 -12 4 -10 73 -14 291
-15 249 -3 287 -1 287 12 0 10 -10 15 -30 15 -18 0 -33 6 -36 15 -4 8 9 57 28
108 l34 92 113 0 113 0 38 -105 c33 -88 37 -106 24 -113 -33 -19 4 -27 122
-27 104 0 124 2 124 15 0 10 -10 15 -30 15 -59 0 -71 23 -264 505 -85 213
-104 243 -126 193z m46 -305 l40 -108 -43 -3 c-24 -2 -63 -2 -87 0 l-44 3 41
108 c22 59 43 107 47 107 3 0 24 -48 46 -107z"/>
<path d="M3868 1338 c-1 -2 -4 -159 -7 -350 -3 -190 -9 -350 -13 -353 -4 -4
-22 -10 -39 -14 -18 -4 -34 -12 -37 -19 -3 -9 29 -12 132 -12 114 0 136 2 136
15 0 10 -10 15 -34 15 -60 0 -62 8 -71 309 l-6 194 88 -94 c177 -190 443 -451
455 -447 10 4 15 81 20 334 5 181 10 339 13 351 4 16 15 24 40 29 72 13 30 24
-95 24 -127 0 -169 -11 -91 -24 23 -3 42 -13 47 -23 4 -10 9 -123 12 -251 l4
-233 -169 173 c-93 95 -211 219 -263 274 -81 87 -113 113 -122 102z"/>
<path d="M8165 1329 c-5 -6 -68 -160 -141 -341 -73 -181 -140 -338 -149 -348
-16 -17 -20 -18 -44 -5 -34 18 -102 89 -190 199 l-71 89 43 46 c108 115 100
262 -16 324 -38 20 -59 22 -239 25 -176 3 -198 2 -198 -12 0 -11 9 -16 33 -16
18 0 38 -5 45 -12 14 -14 17 -624 4 -646 -13 -19 -72 -25 -120 -12 -55 14
-103 58 -213 193 l-89 109 46 51 c61 68 77 107 72 177 -5 68 -33 111 -91 143
-38 20 -59 22 -239 25 -176 3 -198 2 -198 -12 0 -11 9 -16 33 -16 18 0 38 -5
45 -12 9 -9 12 -92 12 -313 0 -165 -3 -310 -6 -322 -4 -16 -17 -24 -40 -29
-75 -14 -26 -24 116 -24 145 0 193 11 111 25 -22 4 -42 13 -45 20 -3 8 -6 67
-6 132 l-2 118 48 -2 c39 -1 52 -6 64 -25 53 -80 165 -220 192 -240 32 -22 39
-23 286 -26 156 -2 252 1 252 7 0 5 -18 12 -39 16 -22 4 -42 13 -45 20 -3 8
-8 66 -12 129 -8 131 -5 136 66 120 36 -8 48 -20 118 -118 43 -61 95 -124 116
-140 l38 -31 164 -3 c105 -2 164 0 164 7 0 5 -12 11 -27 13 -40 4 -40 45 0
143 l32 80 109 0 110 0 38 -100 c40 -106 44 -125 28 -125 -5 0 -10 -4 -10 -10
0 -6 50 -10 130 -10 72 0 130 4 130 8 0 4 -20 13 -44 20 -25 6 -49 21 -58 34
-16 24 -58 123 -201 477 -45 112 -87 206 -94 208 -6 2 -14 -1 -18 -8z m-1416
-88 c67 -47 89 -140 56 -227 -22 -59 -49 -76 -117 -72 l-53 3 -3 154 c-2 117
1 157 10 163 18 12 78 0 107 -21z m757 -2 c79 -48 87 -231 13 -283 -14 -9 -43
-16 -70 -16 -82 0 -79 -6 -79 161 0 130 2 149 18 159 22 13 79 3 118 -21z
m728 -326 c7 -23 6 -23 -78 -23 -50 0 -86 4 -86 10 0 5 19 59 42 119 l43 109
36 -96 c20 -54 40 -107 43 -119z"/>
<path d="M9155 1330 c-5 -8 -11 -166 -14 -353 -6 -320 -7 -339 -25 -353 -11
-8 -30 -14 -43 -14 -13 0 -23 -4 -23 -10 0 -6 52 -10 135 -10 130 0 173 11
100 24 -20 4 -39 16 -46 28 -6 12 -13 110 -16 242 l-6 221 259 -263 c142 -144
266 -263 275 -262 20 0 29 120 30 434 1 122 4 232 8 246 5 19 14 26 39 28 20
2 32 9 32 18 0 11 -24 14 -130 14 -106 0 -130 -3 -130 -14 0 -10 13 -16 37
-18 29 -2 41 -9 49 -28 7 -15 14 -114 17 -251 l5 -226 -202 206 c-111 113
-233 239 -272 280 -52 54 -73 70 -79 61z"/>
<path d="M6002 1320 c-135 -3 -223 -9 -225 -15 -1 -5 14 -11 33 -13 19 -2 41
-10 48 -19 9 -13 12 -88 11 -302 -1 -157 -4 -299 -8 -316 -4 -23 -14 -32 -38
-40 -18 -5 -33 -13 -33 -17 0 -12 445 -16 457 -4 11 11 16 146 5 146 -6 0 -13
-13 -17 -30 -10 -47 -39 -60 -127 -60 -108 0 -108 0 -108 167 l0 136 79 -5
c86 -5 111 -17 111 -54 0 -13 4 -24 10 -24 11 0 17 24 24 103 4 56 -4 71 -29
48 -6 -5 -52 -11 -102 -15 l-93 -7 0 131 0 130 73 0 c86 0 121 -15 125 -53 4
-33 32 -37 32 -4 0 12 3 46 6 75 4 29 3 51 -2 50 -5 -1 -109 -5 -232 -8z"/>
<path d="M1730 1311 c0 -5 18 -11 40 -15 32 -5 43 -12 51 -34 12 -31 7 -596
-5 -624 -5 -11 -19 -18 -36 -18 -29 0 -48 -14 -32 -24 5 -3 107 -6 228 -7 172
-1 230 2 272 14 110 32 192 102 241 206 23 49 26 69 26 156 0 89 -3 106 -27
156 -49 100 -133 164 -246 188 -62 13 -512 15 -512 2z m402 -52 c70 -15 101
-32 159 -86 66 -61 89 -125 89 -242 0 -109 -20 -171 -71 -222 -46 -46 -116
-69 -210 -69 -70 0 -118 12 -131 33 -9 15 -11 581 -1 590 10 11 107 8 165 -4z"/>
<path d="M8622 1308 c3 -7 15 -15 29 -16 49 -8 49 -5 49 -326 0 -165 -3 -311
-6 -323 -4 -16 -17 -24 -40 -29 -76 -14 -25 -24 126 -24 156 0 206 11 115 24
-29 5 -49 14 -55 26 -6 11 -10 137 -10 317 0 319 1 328 49 335 14 2 26 9 29
16 3 9 -30 12 -143 12 -113 0 -146 -3 -143 -12z"/>
</g>
</svg>
